0
SECTION
2
HEADER
9
$INSUNITS
70
4
9
$ACADVER
1
AC1014
9
$HANDSEED
5
FFFF
0
ENDSEC
0
SECTION
2
TABLES
0
TABLE
2
VPORT
5
8
100
AcDbSymbolTable
0
ENDTAB
0
TABLE
2
LTYPE
5
5
100
AcDbSymbolTable
0
LTYPE
5
14
100
AcDbSymbolTableRecord
100
AcDbLinetypeTableRecord
2
BYBLOCK
70
0
0
LTYPE
5
15
100
AcDbSymbolTableRecord
100
AcDbLinetypeTableRecord
2
BYLAYER
70
0
0
ENDTAB
0
TABLE
2
LAYER
5
2
100
AcDbSymbolTable
70
2
0
LAYER
5
50
100
AcDbSymbolTableRecord
100
AcDbLayerTableRecord
2
0
70
0
6
CONTINUOUS
0
ENDTAB
0
TABLE
2
STYLE
5
3
100
AcDbSymbolTable
70
1
0
STYLE
5
11
100
AcDbSymbolTableRecord
100
AcDbTextStyleTableRecord
2
STANDARD
70
0
0
ENDTAB
0
TABLE
2
VIEW
5
6
100
AcDbSymbolTable
70
0
0
ENDTAB
0
TABLE
2
UCS
5
7
100
AcDbSymbolTable
70
0
0
ENDTAB
0
TABLE
2
APPID
5
9
100
AcDbSymbolTable
70
2
0
APPID
5
12
100
AcDbSymbolTableRecord
100
AcDbRegAppTableRecord
2
ACAD
70
0
0
ENDTAB
0
TABLE
2
DIMSTYLE
5
A
100
AcDbSymbolTable
70
1
0
ENDTAB
0
TABLE
2
BLOCK_RECORD
5
1
100
AcDbSymbolTable
70
1
0
BLOCK_RECORD
5
1F
100
AcDbSymbolTableRecord
100
AcDbBlockTableRecord
2
*MODEL_SPACE
0
BLOCK_RECORD
5
1B
100
AcDbSymbolTableRecord
100
AcDbBlockTableRecord
2
*PAPER_SPACE
0
ENDTAB
0
ENDSEC
0
SECTION
2
BLOCKS
0
BLOCK
5
20
100
AcDbEntity
100
AcDbBlockBegin
2
*MODEL_SPACE
0
ENDBLK
5
21
100
AcDbEntity
100
AcDbBlockEnd
0
BLOCK
5
1C
100
AcDbEntity
100
AcDbBlockBegin
2
*PAPER_SPACE
0
ENDBLK
5
1D
100
AcDbEntity
100
AcDbBlockEnd
0
ENDSEC
0
SECTION
2
ENTITIES
0
CIRCLE
5
100
100
AcDbEntity
8
0
100
AcDbCircle
10
63.791029828103945
20
90.807520079852537
30
0
40
9.4230695635285038
210
0
220
0
230
1
0
LWPOLYLINE
5
101
100
AcDbEntity
8
0
100
AcDbPolyline
90
44
70
1
43
0.0
10
2.9999999999999982
20
117
10
18.571428571428569
20
117
10
18.571428571428569
20
120
10
37.142857142857139
20
120
10
37.142857142857139
20
117
10
55.714285714285708
20
117
10
55.714285714285708
20
120
10
74.285714285714292
20
120
10
74.285714285714292
20
117
10
92.857142857142847
20
117
10
92.857142857142847
20
120
10
111.42857142857142
20
120
10
111.42857142857142
20
117
10
127
20
117
10
127
20
96.599999999999994
10
130
20
96.599999999999994
10
130
20
73.200000000000003
10
127
20
73.200000000000003
10
127
20
49.800000000000004
10
130
20
49.800000000000004
10
130
20
26.400000000000006
10
127
20
26.400000000000006
10
127
20
2.9999999999999982
10
111.42857142857142
20
3.0000000000000004
10
111.42857142857142
20
0
10
92.857142857142847
20
0
10
92.857142857142847
20
3.0000000000000004
10
74.285714285714292
20
3.0000000000000004
10
74.285714285714292
20
0
10
55.714285714285708
20
0
10
55.714285714285708
20
3.0000000000000004
10
37.142857142857139
20
3.0000000000000004
10
37.142857142857139
20
0
10
18.571428571428569
20
0
10
18.571428571428569
20
3.0000000000000004
10
2.9999999999999982
20
2.9999999999999982
10
3.0000000000000004
20
26.400000000000006
10
0
20
26.400000000000006
10
0
20
49.800000000000004
10
3.0000000000000004
20
49.800000000000004
10
3.0000000000000004
20
73.200000000000003
10
0
20
73.200000000000003
10
0
20
96.599999999999994
10
3.0000000000000004
20
96.599999999999994
0
ENDSEC
0
SECTION
2
OBJECTS
0
DICTIONARY
5
C
100
AcDbDictionary
3
ACAD_GROUP
350
D
3
ACAD_MLINESTYLE
350
17
0
DICTIONARY
5
D
100
AcDbDictionary
0
DICTIONARY
5
1A
330
C
100
AcDbDictionary
0
DICTIONARY
5
17
100
AcDbDictionary
0
ENDSEC
0
EOF
