0
SECTION
2
HEADER
9
$INSUNITS
70
4
9
$ACADVER
1
AC1014
9
$HANDSEED
5
FFFF
0
ENDSEC
0
SECTION
2
TABLES
0
TABLE
2
VPORT
5
8
100
AcDbSymbolTable
0
ENDTAB
0
TABLE
2
LTYPE
5
5
100
AcDbSymbolTable
0
LTYPE
5
14
100
AcDbSymbolTableRecord
100
AcDbLinetypeTableRecord
2
BYBLOCK
70
0
0
LTYPE
5
15
100
AcDbSymbolTableRecord
100
AcDbLinetypeTableRecord
2
BYLAYER
70
0
0
ENDTAB
0
TABLE
2
LAYER
5
2
100
AcDbSymbolTable
70
2
0
LAYER
5
50
100
AcDbSymbolTableRecord
100
AcDbLayerTableRecord
2
0
70
0
6
CONTINUOUS
0
ENDTAB
0
TABLE
2
STYLE
5
3
100
AcDbSymbolTable
70
1
0
STYLE
5
11
100
AcDbSymbolTableRecord
100
AcDbTextStyleTableRecord
2
STANDARD
70
0
0
ENDTAB
0
TABLE
2
VIEW
5
6
100
AcDbSymbolTable
70
0
0
ENDTAB
0
TABLE
2
UCS
5
7
100
AcDbSymbolTable
70
0
0
ENDTAB
0
TABLE
2
APPID
5
9
100
AcDbSymbolTable
70
2
0
APPID
5
12
100
AcDbSymbolTableRecord
100
AcDbRegAppTableRecord
2
ACAD
70
0
0
ENDTAB
0
TABLE
2
DIMSTYLE
5
A
100
AcDbSymbolTable
70
1
0
ENDTAB
0
TABLE
2
BLOCK_RECORD
5
1
100
AcDbSymbolTable
70
1
0
BLOCK_RECORD
5
1F
100
AcDbSymbolTableRecord
100
AcDbBlockTableRecord
2
*MODEL_SPACE
0
BLOCK_RECORD
5
1B
100
AcDbSymbolTableRecord
100
AcDbBlockTableRecord
2
*PAPER_SPACE
0
ENDTAB
0
ENDSEC
0
SECTION
2
BLOCKS
0
BLOCK
5
20
100
AcDbEntity
100
AcDbBlockBegin
2
*MODEL_SPACE
0
ENDBLK
5
21
100
AcDbEntity
100
AcDbBlockEnd
0
BLOCK
5
1C
100
AcDbEntity
100
AcDbBlockBegin
2
*PAPER_SPACE
0
ENDBLK
5
1D
100
AcDbEntity
100
AcDbBlockEnd
0
ENDSEC
0
SECTION
2
ENTITIES
0
LWPOLYLINE
5
100
100
AcDbEntity
8
0
100
AcDbPolyline
90
4
70
1
43
0.0
10
-284.42955680238919
20
-19.385473206512714
10
-284.42955680238919
20
-73.385473206512714
10
-183.42955680238919
20
-73.385473206512714
10
-183.42955680238919
20
-19.385473206512714
0
LWPOLYLINE
5
101
100
AcDbEntity
8
0
100
AcDbPolyline
90
4
70
1
43
0.0
10
-169.40207214218401
20
-19.102095434038972
10
-169.40207214218401
20
-72.444512453784867
10
-161.40207214218401
20
-72.444512453784867
10
-161.40207214218401
20
-19.102095434038972
0
LWPOLYLINE
5
102
100
AcDbEntity
8
0
100
AcDbPolyline
90
4
70
1
43
0.0
10
-270.756856896763
20
-90.032219803339061
10
-270.756856896763
20
-113.03221980333907
10
-199.756856896763
20
-113.03221980333907
10
-199.756856896763
20
-90.032219803339061
0
CIRCLE
5
103
100
AcDbEntity
8
0
100
AcDbCircle
10
-125.85688479902007
20
-100.53112546835663
30
0
40
5
210
0
220
0
230
1
0
LWPOLYLINE
5
104
100
AcDbEntity
8
0
100
AcDbPolyline
90
4
70
1
43
0.0
10
-148.5
20
-18.571428571428569
10
-151.5
20
-18.571428571428569
10
-151.5
20
-37.142857142857139
10
-148.5
20
-37.142857142857139
0
LWPOLYLINE
5
105
100
AcDbEntity
8
0
100
AcDbPolyline
90
4
70
1
43
0.0
10
-148.5
20
-55.714285714285708
10
-151.5
20
-55.714285714285708
10
-151.5
20
-74.285714285714292
10
-148.5
20
-74.285714285714292
0
LWPOLYLINE
5
106
100
AcDbEntity
8
0
100
AcDbPolyline
90
4
70
1
43
0.0
10
-148.5
20
-92.857142857142847
10
-151.5
20
-92.857142857142847
10
-151.5
20
-111.42857142857142
10
-148.5
20
-111.42857142857142
0
LWPOLYLINE
5
107
100
AcDbEntity
8
0
100
AcDbPolyline
90
84
70
1
43
0.0
10
-297
20
-92.857142857142847
10
-300
20
-92.857142857142847
10
-300
20
-74.285714285714292
10
-297
20
-74.285714285714292
10
-297
20
-55.714285714285708
10
-300
20
-55.714285714285708
10
-300
20
-37.142857142857139
10
-297
20
-37.142857142857139
10
-297
20
-18.571428571428569
10
-300
20
-18.571428571428569
10
-300
20
0
10
-280
20
0
10
-280
20
-3.0000000000000004
10
-260
20
-3.0000000000000004
10
-260
20
0
10
-240
20
0
10
-240
20
-3.0000000000000004
10
-220
20
-3.0000000000000004
10
-220
20
0
10
-200
20
0
10
-200
20
-3.0000000000000004
10
-180
20
-3.0000000000000004
10
-180
20
0
10
-160
20
0
10
-160
20
-3.0000000000000004
10
-140
20
-3.0000000000000004
10
-140
20
0
10
-120
20
0
10
-120
20
-3.0000000000000004
10
-100
20
-3.0000000000000004
10
-100
20
0
10
-80
20
0
10
-80
20
-3.0000000000000004
10
-60
20
-3.0000000000000004
10
-60
20
0
10
-40
20
0
10
-40
20
-3.0000000000000004
10
-20
20
-3.0000000000000004
10
-20
20
0
10
0
20
0
10
0
20
-18.571428571428569
10
-3.0000000000000071
20
-18.571428571428569
10
-3.0000000000000071
20
-37.142857142857139
10
0
20
-37.142857142857139
10
0
20
-55.714285714285708
10
-3.0000000000000071
20
-55.714285714285708
10
-3.0000000000000071
20
-74.285714285714292
10
0
20
-74.285714285714292
10
0
20
-92.857142857142847
10
-3.0000000000000071
20
-92.857142857142847
10
-3.0000000000000071
20
-111.42857142857142
10
0
20
-111.42857142857142
10
0
20
-130
10
-20
20
-130
10
-20
20
-127
10
-40
20
-127
10
-40
20
-130
10
-60
20
-130
10
-60
20
-127
10
-80
20
-127
10
-80
20
-130
10
-100
20
-130
10
-100
20
-127
10
-120
20
-127
10
-120
20
-130
10
-140
20
-130
10
-140
20
-127
10
-160
20
-127
10
-160
20
-130
10
-180
20
-130
10
-180
20
-127
10
-200
20
-127
10
-200
20
-130
10
-220
20
-130
10
-220
20
-127
10
-240
20
-127
10
-240
20
-130
10
-260
20
-130
10
-260
20
-127
10
-280
20
-127
10
-280
20
-130
10
-300
20
-130
10
-300
20
-111.42857142857142
10
-297
20
-111.42857142857142
0
ENDSEC
0
SECTION
2
OBJECTS
0
DICTIONARY
5
C
100
AcDbDictionary
3
ACAD_GROUP
350
D
3
ACAD_MLINESTYLE
350
17
0
DICTIONARY
5
D
100
AcDbDictionary
0
DICTIONARY
5
1A
330
C
100
AcDbDictionary
0
DICTIONARY
5
17
100
AcDbDictionary
0
ENDSEC
0
EOF
